<svg id="visual" viewBox="0 0 900 600" width="900" height="600" xmlns="http://www.w3.org/2000/svg" xmlns:xlink="http://www.w3.org/1999/xlink" version="1.1"><rect x="0" y="0" width="900" height="600" fill="#FFFFFF"></rect><path d="M0 204L21.5 216.8C43 229.7 86 255.3 128.8 275C171.7 294.7 214.3 308.3 257.2 306C300 303.7 343 285.3 385.8 285.5C428.7 285.7 471.3 304.3 514.2 314.2C557 324 600 325 642.8 326.3C685.7 327.7 728.3 329.3 771.2 321.2C814 313 857 295 878.5 286L900 277L900 601L878.5 601C857 601 814 601 771.2 601C728.3 601 685.7 601 642.8 601C600 601 557 601 514.2 601C471.3 601 428.7 601 385.8 601C343 601 300 601 257.2 601C214.3 601 171.7 601 128.8 601C86 601 43 601 21.5 601L0 601Z" fill="#00acea"></path><path d="M0 260L21.5 273C43 286 86 312 128.8 327.8C171.7 343.7 214.3 349.3 257.2 333.2C300 317 343 279 385.8 268C428.7 257 471.3 273 514.2 288.2C557 303.3 600 317.7 642.8 322.8C685.7 328 728.3 324 771.2 317.2C814 310.3 857 300.7 878.5 295.8L900 291L900 601L878.5 601C857 601 814 601 771.2 601C728.3 601 685.7 601 642.8 601C600 601 557 601 514.2 601C471.3 601 428.7 601 385.8 601C343 601 300 601 257.2 601C214.3 601 171.7 601 128.8 601C86 601 43 601 21.5 601L0 601Z" fill="#4fb6ed"></path><path d="M0 318L21.5 332.2C43 346.3 86 374.7 128.8 381.5C171.7 388.3 214.3 373.7 257.2 363.8C300 354 343 349 385.8 352C428.7 355 471.3 366 514.2 360C557 354 600 331 642.8 315.3C685.7 299.7 728.3 291.3 771.2 291.8C814 292.3 857 301.7 878.5 306.3L900 311L900 601L878.5 601C857 601 814 601 771.2 601C728.3 601 685.7 601 642.8 601C600 601 557 601 514.2 601C471.3 601 428.7 601 385.8 601C343 601 300 601 257.2 601C214.3 601 171.7 601 128.8 601C86 601 43 601 21.5 601L0 601Z" fill="#72c0f0"></path><path d="M0 350L21.5 359.7C43 369.3 86 388.7 128.8 386C171.7 383.3 214.3 358.7 257.2 345.8C300 333 343 332 385.8 334.5C428.7 337 471.3 343 514.2 359.5C557 376 600 403 642.8 404C685.7 405 728.3 380 771.2 381.7C814 383.3 857 411.7 878.5 425.8L900 440L900 601L878.5 601C857 601 814 601 771.2 601C728.3 601 685.7 601 642.8 601C600 601 557 601 514.2 601C471.3 601 428.7 601 385.8 601C343 601 300 601 257.2 601C214.3 601 171.7 601 128.8 601C86 601 43 601 21.5 601L0 601Z" fill="#8ecbf2"></path><path d="M0 457L21.5 450.8C43 444.7 86 432.3 128.8 428.5C171.7 424.7 214.3 429.3 257.2 424.5C300 419.7 343 405.3 385.8 410C428.7 414.7 471.3 438.3 514.2 443.8C557 449.3 600 436.7 642.8 421.3C685.7 406 728.3 388 771.2 388.2C814 388.3 857 406.7 878.5 415.8L900 425L900 601L878.5 601C857 601 814 601 771.2 601C728.3 601 685.7 601 642.8 601C600 601 557 601 514.2 601C471.3 601 428.7 601 385.8 601C343 601 300 601 257.2 601C214.3 601 171.7 601 128.8 601C86 601 43 601 21.5 601L0 601Z" fill="#a7d5f5"></path><path d="M0 489L21.5 475.5C43 462 86 435 128.8 435.5C171.7 436 214.3 464 257.2 471.2C300 478.3 343 464.7 385.8 457C428.7 449.3 471.3 447.7 514.2 454.5C557 461.3 600 476.7 642.8 474C685.7 471.3 728.3 450.7 771.2 446C814 441.3 857 452.7 878.5 458.3L900 464L900 601L878.5 601C857 601 814 601 771.2 601C728.3 601 685.7 601 642.8 601C600 601 557 601 514.2 601C471.3 601 428.7 601 385.8 601C343 601 300 601 257.2 601C214.3 601 171.7 601 128.8 601C86 601 43 601 21.5 601L0 601Z" fill="#bedff8"></path><path d="M0 506L21.5 505C43 504 86 502 128.8 501.3C171.7 500.7 214.3 501.3 257.2 500.8C300 500.3 343 498.7 385.8 490.7C428.7 482.7 471.3 468.3 514.2 462.3C557 456.3 600 458.7 642.8 470C685.7 481.3 728.3 501.7 771.2 501.3C814 501 857 480 878.5 469.5L900 459L900 601L878.5 601C857 601 814 601 771.2 601C728.3 601 685.7 601 642.8 601C600 601 557 601 514.2 601C471.3 601 428.7 601 385.8 601C343 601 300 601 257.2 601C214.3 601 171.7 601 128.8 601C86 601 43 601 21.5 601L0 601Z" fill="#d4eafa"></path><path d="M0 504L21.5 502.7C43 501.3 86 498.7 128.8 505.5C171.7 512.3 214.3 528.7 257.2 527.2C300 525.7 343 506.3 385.8 497.5C428.7 488.7 471.3 490.3 514.2 499.3C557 508.3 600 524.7 642.8 530.5C685.7 536.3 728.3 531.7 771.2 532.3C814 533 857 539 878.5 542L900 545L900 601L878.5 601C857 601 814 601 771.2 601C728.3 601 685.7 601 642.8 601C600 601 557 601 514.2 601C471.3 601 428.7 601 385.8 601C343 601 300 601 257.2 601C214.3 601 171.7 601 128.8 601C86 601 43 601 21.5 601L0 601Z" fill="#eaf4fd"></path><path d="M0 546L21.5 548.2C43 550.3 86 554.7 128.8 551.8C171.7 549 214.3 539 257.2 534.5C300 530 343 531 385.8 536C428.7 541 471.3 550 514.2 555.2C557 560.3 600 561.7 642.8 559.2C685.7 556.7 728.3 550.3 771.2 549.3C814 548.3 857 552.7 878.5 554.8L900 557L900 601L878.5 601C857 601 814 601 771.2 601C728.3 601 685.7 601 642.8 601C600 601 557 601 514.2 601C471.3 601 428.7 601 385.8 601C343 601 300 601 257.2 601C214.3 601 171.7 601 128.8 601C86 601 43 601 21.5 601L0 601Z" fill="#ffffff"></path></svg>